<?xml version="1.0" standalone="no"?>
<!DOCTYPE svg PUBLIC "-//W3C//DTD SVG 20010904//EN"
 "http://www.w3.org/TR/2001/REC-SVG-20010904/DTD/svg10.dtd">
<svg version="1.0" xmlns="http://www.w3.org/2000/svg"
 width="1024.000000pt" height="1024.000000pt" viewBox="0 0 1024.000000 1024.000000"
 preserveAspectRatio="xMidYMid meet">

<g transform="translate(0.000000,1024.000000) scale(0.100000,-0.100000)"
fill="#000000" stroke="none">
<path d="M4950 9364 c-19 -2 -105 -9 -190 -15 -173 -13 -177 -13 -275 -28
-102 -15 -177 -28 -200 -34 -11 -3 -56 -13 -100 -23 -82 -17 -121 -27 -260
-64 -75 -20 -280 -86 -335 -108 -14 -6 -50 -20 -80 -32 -30 -11 -64 -25 -75
-30 -11 -5 -42 -19 -70 -30 -94 -41 -410 -202 -461 -235 -27 -18 -67 -41 -87
-51 -20 -10 -37 -21 -37 -26 0 -4 -5 -8 -10 -8 -6 0 -43 -22 -83 -50 -40 -27
-99 -69 -132 -91 -33 -23 -91 -67 -130 -98 -38 -31 -74 -59 -80 -64 -58 -44
-235 -203 -350 -314 -52 -50 -234 -253 -277 -309 -12 -16 -25 -31 -28 -34 -7
-6 -148 -196 -167 -226 -7 -10 -30 -44 -52 -74 -100 -142 -260 -431 -341 -615
-12 -27 -30 -68 -40 -90 -10 -22 -42 -105 -70 -185 -29 -80 -56 -154 -61 -165
-4 -11 -17 -54 -29 -95 -11 -41 -25 -91 -30 -110 -21 -74 -69 -277 -75 -320
-3 -25 -10 -67 -15 -95 -51 -280 -69 -623 -51 -940 18 -318 61 -586 141 -879
38 -143 126 -413 140 -431 4 -5 13 -27 20 -48 7 -22 18 -51 26 -65 8 -15 14
-30 14 -34 0 -4 20 -50 45 -102 25 -53 45 -100 45 -105 0 -5 3 -11 8 -13 4 -1
20 -30 36 -63 16 -33 71 -130 123 -215 120 -198 115 -190 135 -214 10 -11 20
-28 24 -38 3 -10 9 -18 14 -18 5 0 11 -8 14 -18 4 -10 14 -27 24 -38 9 -10 30
-37 46 -59 17 -22 32 -42 36 -45 3 -3 32 -39 65 -80 32 -41 61 -77 64 -80 4
-3 35 -39 71 -80 133 -153 348 -356 520 -490 49 -38 71 -56 103 -83 12 -10 34
-26 50 -35 15 -9 27 -20 27 -24 0 -4 7 -8 15 -8 8 0 15 -4 15 -8 0 -5 12 -15
28 -23 15 -8 36 -22 46 -31 11 -10 24 -18 28 -18 5 0 18 -9 30 -20 12 -11 34
-26 50 -32 15 -7 28 -16 28 -20 0 -5 5 -8 11 -8 6 0 23 -8 37 -19 55 -38 159
-95 357 -193 77 -38 148 -74 157 -79 10 -5 25 -9 33 -9 8 0 15 -4 15 -10 0 -5
6 -10 14 -10 14 0 157 -54 188 -71 10 -5 23 -9 30 -9 7 0 26 -7 42 -15 15 -8
59 -23 97 -32 38 -9 69 -20 69 -25 0 -4 11 -8 25 -8 13 0 34 -4 47 -9 28 -11
74 -23 188 -50 84 -20 191 -41 415 -80 124 -22 517 -43 675 -37 244 10 470 25
525 36 28 5 84 14 125 21 187 29 539 113 625 149 11 5 55 21 98 35 43 14 90
31 105 37 145 59 167 68 267 113 44 19 89 40 100 47 11 6 59 30 106 54 48 24
111 58 140 75 30 18 63 37 74 43 117 66 369 240 505 349 149 121 244 206 414
373 47 46 199 218 249 281 34 43 64 80 67 83 25 22 191 263 275 400 84 135
245 441 245 464 0 3 13 33 30 68 33 71 105 258 127 333 8 28 19 59 24 70 10
23 59 207 66 245 3 14 8 34 13 45 5 11 11 34 13 50 3 17 12 66 21 110 55 268
78 492 80 795 2 333 -8 468 -55 750 -101 606 -329 1174 -676 1688 -106 157
-206 286 -348 452 -56 65 -299 306 -385 381 -94 83 -293 240 -327 257 -12 7
-27 18 -35 25 -16 15 -243 165 -293 193 -11 6 -36 20 -55 31 -19 11 -51 29
-70 39 -19 11 -37 21 -40 24 -6 6 -278 140 -285 140 -2 0 -34 14 -70 30 -36
17 -69 30 -73 30 -4 1 -25 9 -47 20 -22 11 -46 19 -53 20 -7 0 -21 5 -32 10
-11 6 -29 15 -40 20 -11 6 -29 10 -39 10 -11 0 -23 5 -26 10 -3 6 -15 10 -26
10 -10 0 -27 4 -37 9 -23 13 -209 68 -252 76 -19 3 -44 10 -55 14 -19 8 -121
30 -235 52 -30 5 -74 14 -98 19 -23 6 -58 10 -77 10 -19 0 -56 4 -82 9 -126
24 -600 47 -723 35z m715 -504 c243 -41 293 -51 415 -83 52 -14 122 -33 155
-42 33 -9 69 -20 80 -25 11 -5 40 -14 65 -21 25 -6 50 -15 55 -19 6 -5 39 -18
74 -30 35 -11 84 -30 110 -42 214 -94 446 -212 511 -258 15 -11 31 -20 34 -20
4 0 40 -22 81 -50 41 -27 78 -50 84 -50 5 0 11 -4 13 -8 2 -5 32 -28 68 -52
36 -24 70 -49 76 -54 6 -6 26 -22 44 -36 36 -27 93 -74 180 -148 168 -144 442
-445 582 -637 65 -91 194 -289 224 -345 16 -30 32 -57 35 -60 11 -10 199 -402
199 -416 0 -4 15 -46 34 -93 78 -196 156 -491 190 -711 9 -58 22 -139 29 -180
16 -102 17 -747 0 -850 -7 -41 -20 -127 -29 -190 -29 -205 -130 -594 -184
-715 -5 -11 -19 -45 -30 -75 -29 -75 -131 -300 -174 -382 -61 -117 -245 -409
-297 -472 -5 -6 -32 -40 -60 -76 -141 -180 -157 -198 -334 -376 -158 -159
-271 -258 -420 -367 -49 -37 -95 -70 -100 -74 -35 -27 -172 -116 -235 -154
-41 -24 -88 -51 -105 -61 -114 -68 -463 -227 -560 -255 -27 -8 -54 -18 -60
-23 -12 -9 -220 -71 -330 -99 -116 -29 -367 -77 -465 -90 -344 -44 -884 -33
-1145 24 -33 7 -89 18 -125 24 -78 14 -103 19 -155 31 -22 5 -53 12 -70 15
-16 4 -39 10 -50 15 -11 4 -40 13 -65 20 -25 7 -54 16 -65 20 -11 4 -40 14
-65 21 -25 7 -49 16 -55 21 -5 4 -17 8 -27 8 -10 0 -26 4 -36 9 -21 11 -51 23
-127 52 -33 12 -102 42 -152 66 -51 24 -97 43 -103 43 -5 0 -10 4 -10 9 0 5
-10 11 -22 15 -13 3 -74 35 -137 71 -62 36 -117 65 -122 65 -5 0 -9 3 -9 8 0
4 -17 16 -37 27 -21 11 -40 22 -43 25 -3 3 -39 28 -80 55 -68 45 -178 122
-190 135 -3 3 -23 18 -45 35 -87 65 -250 212 -372 336 -86 88 -193 209 -253
285 -249 316 -402 572 -543 905 -225 533 -305 963 -294 1574 3 160 10 315 16
345 6 30 15 93 22 140 6 47 24 146 40 220 30 142 35 159 69 280 12 41 24 85
27 98 3 12 9 25 14 28 5 3 9 13 9 23 0 15 42 124 121 311 33 78 137 280 195
378 27 46 57 98 67 115 35 59 180 261 253 352 155 194 336 377 534 543 63 53
117 99 120 102 6 6 73 55 157 115 122 87 311 200 481 287 95 48 176 88 181 88
5 0 42 15 83 34 40 18 105 43 143 56 39 12 84 28 100 35 29 12 151 51 230 74
136 39 354 82 510 101 50 6 113 15 140 20 28 4 219 7 425 5 332 -2 390 -5 505
-25z"/>
<path d="M4773 8333 c-28 -5 -73 -48 -73 -68 0 -9 13 -30 29 -46 26 -25 37
-29 88 -29 75 0 123 27 123 67 -1 37 -17 57 -59 71 -34 12 -65 13 -108 5z"/>
<path d="M5315 8243 c-51 -12 -59 -69 -15 -106 23 -20 30 -34 30 -62 0 -63
-12 -74 -67 -63 -56 11 -142 2 -196 -19 -38 -16 -40 -15 -104 16 -43 22 -102
39 -171 52 -70 13 -113 26 -126 38 -49 45 -174 51 -260 12 -59 -27 -94 -69
-105 -125 -5 -27 -13 -51 -18 -55 -18 -12 -66 -126 -71 -169 -4 -36 -9 -43
-31 -47 -99 -20 -169 -58 -231 -126 l-35 -39 -125 13 -125 12 -3 37 c-2 22
-13 47 -28 63 -21 23 -31 27 -62 21 -50 -8 -83 -34 -109 -86 -39 -76 -27 -157
26 -180 59 -24 98 -5 159 78 17 23 17 23 132 10 l115 -13 -3 -43 c-2 -24 2
-66 8 -92 12 -48 11 -49 -32 -111 -24 -35 -51 -72 -60 -83 -10 -11 -18 -23
-18 -26 0 -4 -8 -17 -19 -29 -10 -12 -34 -47 -52 -78 -19 -31 -58 -81 -87
-111 -78 -81 -96 -127 -89 -228 5 -88 18 -117 75 -170 36 -34 68 -44 143 -44
27 0 68 -6 91 -14 41 -14 181 -36 332 -53 l69 -8 14 -45 c17 -57 72 -133 123
-168 37 -25 51 -54 31 -66 -4 -3 -16 -27 -26 -53 -22 -59 -44 -113 -56 -135
-5 -10 -9 -24 -9 -31 0 -7 -9 -32 -20 -55 -11 -22 -20 -46 -20 -52 0 -5 -3
-10 -7 -10 -125 -7 -180 -27 -227 -81 -80 -94 -74 -249 14 -322 97 -82 234
-85 323 -6 61 53 81 107 75 199 -6 78 -32 123 -94 163 -42 27 -43 44 -3 138
36 85 48 112 79 192 12 31 26 59 30 62 4 2 22 0 41 -6 68 -20 236 -1 275 32
15 12 21 10 95 -48 30 -24 58 -43 62 -43 3 0 30 -14 59 -32 80 -47 159 -88
172 -88 6 -1 28 -26 49 -56 21 -30 50 -60 63 -66 13 -6 24 -15 24 -20 0 -4 8
-8 18 -8 10 0 23 -5 28 -10 6 -6 46 -13 91 -17 137 -10 233 41 298 158 28 51
30 61 31 169 1 63 8 153 17 200 9 47 17 136 17 201 l0 115 43 19 c23 10 67 44
98 76 66 67 53 69 214 -39 l100 -67 6 -65 c7 -81 18 -107 60 -145 29 -25 42
-29 90 -30 73 0 103 18 134 79 32 65 35 162 5 223 -55 114 -184 136 -248 42
-31 -44 -38 -46 -83 -21 -32 16 -41 23 -73 50 -8 6 -19 12 -23 12 -5 0 -31 15
-59 34 l-51 34 5 57 c5 56 -14 161 -30 171 -17 11 -7 45 26 91 19 27 54 87 79
135 24 49 49 94 54 100 6 7 16 29 23 49 32 89 -62 235 -164 257 -26 5 -55 8
-64 5 -10 -2 -38 5 -64 16 -59 25 -141 45 -248 61 -144 21 -141 20 -156 71
-14 47 -71 113 -107 125 -18 6 -19 12 -13 67 6 62 18 80 47 72 46 -15 106 55
82 94 -24 40 -115 61 -188 44z m-501 -230 c34 -9 66 -19 71 -23 6 -4 24 -11
42 -14 51 -11 58 -28 29 -70 -13 -20 -27 -58 -31 -85 l-7 -49 -61 -12 c-100
-19 -247 -67 -309 -99 -52 -27 -88 -32 -88 -12 0 14 -83 49 -144 61 l-58 12 6
41 c9 54 60 153 77 150 8 -1 34 -7 59 -13 94 -24 204 11 267 85 43 51 57 53
147 28z m943 -307 c61 -15 117 -33 122 -40 8 -10 7 -23 -4 -48 -22 -54 -1
-139 47 -198 24 -29 76 -60 114 -68 25 -5 40 -14 42 -25 5 -25 -100 -187 -120
-187 -4 0 -27 14 -51 31 -44 31 -135 59 -193 59 -28 0 -34 6 -73 81 -46 89
-131 227 -168 272 -28 34 -29 60 -5 95 10 15 22 35 26 46 6 17 14 18 79 14 39
-3 122 -17 184 -32z m-790 -25 c79 -92 209 -130 338 -98 33 8 68 18 77 21 13
6 33 -17 94 -111 66 -101 154 -253 154 -266 0 -3 -24 -17 -54 -32 -48 -24
-100 -66 -131 -107 -44 -56 -66 -172 -46 -243 9 -34 8 -42 -5 -52 -43 -32
-367 -153 -409 -153 -17 0 -29 9 -40 34 -34 72 -155 166 -213 166 -11 0 -24 5
-27 10 -9 15 -143 12 -197 -4 -52 -16 -52 -17 -88 49 -62 112 -86 167 -95 218
-4 20 -11 40 -16 43 -19 12 -8 45 18 55 63 24 95 43 141 87 77 73 99 157 67
247 -8 22 -15 41 -15 43 0 2 37 21 83 42 65 31 259 92 312 99 6 0 29 -21 52
-48z m-981 -419 c34 -31 97 -55 174 -65 41 -5 80 -11 86 -12 6 -2 19 -34 29
-72 10 -37 27 -86 37 -108 30 -61 63 -127 83 -161 l19 -31 -55 -54 c-72 -72
-119 -173 -119 -259 l0 -33 -107 7 c-60 3 -128 11 -153 16 -25 6 -55 12 -67
15 -31 7 -29 20 11 61 54 56 78 117 78 199 0 53 -5 82 -21 112 -36 71 -118
123 -195 123 -14 0 -26 3 -26 6 0 21 183 274 198 274 5 0 17 -8 28 -18z m1488
-545 c17 -18 45 -43 61 -54 37 -26 138 -53 194 -53 l41 0 0 -102 c0 -95 -14
-220 -26 -240 -3 -5 -24 8 -46 28 -66 59 -120 79 -219 79 -89 0 -112 -7 -179
-55 -45 -32 -77 -67 -96 -106 -18 -38 -34 -135 -27 -163 10 -39 -23 -29 -162
49 -63 35 -145 99 -145 114 0 7 12 23 26 37 14 13 40 51 57 84 28 53 32 71 34
155 l2 95 48 16 c26 9 82 26 123 39 73 22 179 66 230 95 37 21 49 19 84 -18z"/>
<path d="M4885 7450 c-11 -4 -35 -14 -52 -20 -69 -26 -123 -109 -123 -190 0
-194 253 -281 404 -140 116 109 74 276 -86 341 -46 19 -110 23 -143 9z"/>
<path d="M4003 8049 c-42 -12 -103 -73 -103 -102 1 -40 26 -60 72 -60 58 0
113 28 139 69 26 42 20 76 -16 92 -30 14 -47 14 -92 1z"/>
<path d="M5852 8000 c-26 -25 -28 -59 -6 -103 22 -42 36 -55 80 -73 89 -37
146 38 94 124 -40 66 -125 92 -168 52z"/>
<path d="M6396 7333 c-106 -27 -76 -251 40 -299 49 -20 68 -17 103 15 27 25
31 36 31 79 0 90 -44 172 -106 198 -35 15 -37 15 -68 7z"/>
<path d="M3263 7105 c-59 -26 -93 -111 -73 -184 19 -72 67 -97 126 -65 51 28
78 89 70 158 -7 50 -33 96 -56 96 -4 0 -14 2 -22 5 -7 2 -28 -2 -45 -10z"/>
<path d="M3507 6196 c-83 -30 -124 -110 -105 -199 29 -139 227 -176 315 -60
22 29 27 45 27 98 0 54 -4 69 -28 100 -46 60 -139 87 -209 61z"/>
<path d="M6130 6123 c-82 -31 -132 -144 -100 -228 17 -45 77 -93 125 -101 61
-9 97 2 132 39 43 45 53 69 53 126 0 80 -30 129 -96 157 -34 14 -86 17 -114 7z"/>
<path d="M5001 5557 c-62 -31 -84 -64 -89 -137 -7 -101 32 -157 127 -180 90
-21 171 19 206 102 20 50 19 91 -4 136 -48 94 -146 126 -240 79z"/>
<path d="M2300 4920 c-120 -64 -163 -161 -129 -295 15 -61 70 -120 171 -186
127 -82 168 -130 168 -195 0 -139 -182 -188 -312 -84 -43 35 -48 28 -48 -55 0
-35 5 -59 15 -69 23 -22 79 -36 170 -43 67 -4 89 -2 139 17 151 57 221 213
161 356 -22 52 -83 112 -191 185 -110 75 -134 102 -141 158 -6 59 34 110 102
130 40 11 129 -12 172 -45 l33 -25 0 76 0 76 -35 15 c-22 9 -67 14 -127 13
-82 0 -99 -4 -148 -29z"/>
<path d="M5723 4925 c-92 -33 -144 -67 -204 -133 -61 -66 -95 -128 -115 -210
-28 -121 -8 -264 51 -363 117 -192 331 -270 565 -206 115 32 126 39 134 84 7
43 8 103 2 103 -2 0 -40 -18 -83 -41 -105 -54 -202 -70 -285 -45 -292 85 -329
552 -56 698 37 20 57 23 148 22 96 0 111 -3 174 -32 38 -18 73 -32 78 -32 5 0
8 33 6 73 l-3 72 -50 14 c-29 9 -103 16 -175 17 -109 2 -133 -1 -187 -21z"/>
<path d="M6880 4928 c-175 -65 -291 -206 -321 -388 -33 -202 83 -419 271 -507
227 -107 540 1 644 221 38 79 50 148 43 246 -15 215 -132 374 -319 431 -88 26
-242 25 -318 -3z m255 -109 c221 -82 308 -427 153 -604 -175 -199 -469 -119
-559 154 -18 53 -21 79 -16 150 7 124 52 210 140 273 69 49 192 61 282 27z"/>
<path d="M7776 4923 c-160 -80 -194 -271 -71 -397 23 -24 62 -57 86 -72 86
-54 151 -106 170 -137 38 -64 14 -158 -48 -191 -74 -38 -147 -29 -232 29 l-51
34 0 -78 c0 -76 1 -79 28 -89 146 -57 289 -40 384 47 68 62 93 124 85 216 -8
110 -47 158 -207 262 -100 66 -126 91 -139 138 -36 132 124 208 254 119 20
-13 40 -24 46 -24 6 0 9 29 7 72 l-3 72 -40 12 c-22 7 -80 12 -130 12 -75 0
-98 -4 -139 -25z"/>
<path d="M2784 4908 c34 -175 34 -654 0 -855 l-7 -43 256 0 255 0 22 58 c13
31 27 61 32 67 4 5 8 18 8 28 0 14 -4 17 -17 12 -107 -44 -188 -60 -308 -60
l-70 0 -3 158 -3 157 43 0 c24 0 76 -9 116 -20 39 -11 74 -20 76 -20 4 0 76
127 76 135 0 3 -69 6 -152 7 l-153 3 -3 153 c-2 126 0 153 12 158 19 7 159
-14 216 -33 51 -18 53 -16 96 78 l23 49 -261 0 -260 0 6 -32z"/>
<path d="M3444 4903 c22 -134 28 -258 22 -498 -5 -227 -11 -317 -27 -375 -3
-12 13 -15 100 -18 92 -2 103 -1 97 14 -23 60 -41 374 -21 374 6 0 36 -33 65
-72 68 -91 180 -220 239 -275 l46 -43 78 0 c87 0 87 1 32 62 -103 113 -265
332 -265 357 0 6 16 18 35 27 47 22 121 105 129 145 10 53 7 128 -8 163 -20
49 -80 111 -129 134 -57 27 -164 42 -293 42 l-107 0 7 -37z m306 -87 c52 -34
84 -102 78 -166 -9 -90 -71 -152 -174 -174 -52 -11 -55 1 -50 195 3 96 6 176
6 178 1 13 109 -12 140 -33z"/>
<path d="M4106 4928 c5 -7 19 -29 32 -48 40 -58 77 -139 116 -250 21 -58 43
-118 51 -135 7 -16 36 -95 64 -175 125 -349 109 -320 175 -320 51 0 54 1 66
33 7 17 28 68 46 112 18 44 55 136 82 205 126 319 195 479 222 520 10 14 21
35 24 48 7 22 7 22 -102 22 l-109 0 -7 -64 c-6 -61 -27 -149 -46 -191 -5 -11
-19 -49 -31 -85 -23 -70 -71 -196 -93 -245 -8 -16 -19 -47 -26 -68 -13 -42
-22 -41 -40 5 -6 18 -16 42 -20 53 -31 76 -103 290 -135 399 -9 32 -19 90 -22
127 l-6 69 -124 0 c-97 0 -122 -3 -117 -12z"/>
<path d="M5095 4908 c4 -18 9 -186 12 -373 4 -312 -1 -431 -23 -507 -5 -16 4
-18 96 -18 l102 0 -6 28 c-11 46 -27 562 -21 662 6 100 13 167 21 213 l6 27
-97 0 -97 0 7 -32z"/>
<path d="M6254 4903 c26 -146 36 -580 17 -723 -5 -36 -12 -89 -16 -118 l-8
-53 99 3 c112 3 103 -9 83 112 -11 71 -6 689 7 774 l6 42 -97 0 -98 0 7 -37z"/>
<path d="M2360 3871 c-99 -16 -187 -78 -226 -159 -22 -46 -30 -155 -15 -209
16 -59 68 -123 126 -155 44 -24 61 -28 138 -28 81 0 173 14 189 29 3 3 8 59
10 124 l3 117 -45 0 -46 0 4 -94 c4 -91 3 -95 -19 -107 -39 -21 -132 -15 -181
13 -142 78 -136 317 10 389 36 18 56 21 110 17 37 -3 82 -13 101 -22 18 -10
34 -16 35 -14 2 2 1 22 -2 45 -3 32 -9 42 -25 47 -45 10 -123 14 -167 7z"/>
<path d="M5865 3870 c-82 -12 -126 -56 -133 -132 -5 -64 18 -104 88 -155 92
-67 110 -88 110 -125 0 -76 -97 -105 -174 -53 l-36 24 0 -44 c0 -56 20 -69
110 -70 121 0 180 51 180 157 0 50 -4 62 -31 92 -17 19 -47 45 -67 57 -20 12
-52 36 -69 53 -86 79 12 178 115 116 l32 -20 0 39 c0 21 -6 43 -12 49 -18 13
-65 18 -113 12z"/>
<path d="M2686 3863 c-1 -2 2 -35 7 -75 9 -77 3 -407 -8 -445 l-7 -23 146 0
147 0 20 46 c11 26 18 48 16 50 -1 2 -24 -3 -50 -11 -26 -8 -73 -17 -106 -21
-72 -8 -76 -2 -76 106 l0 75 50 -1 c28 -1 59 -4 71 -8 17 -6 24 -1 37 27 10
19 17 38 17 41 0 3 -38 6 -85 6 -47 0 -85 3 -86 8 -5 39 -7 141 -3 156 5 16
13 18 63 13 31 -3 66 -9 78 -13 17 -5 25 0 37 25 9 16 16 35 16 40 0 7 -50 10
-141 8 -77 -1 -142 -3 -143 -4z"/>
<path d="M3052 3829 l33 -41 0 -162 c0 -88 -3 -194 -8 -233 l-7 -73 27 0 c16
0 38 3 51 6 20 6 22 11 18 48 -3 22 -8 101 -12 174 -5 115 -4 132 10 132 13 0
144 -166 242 -307 24 -35 35 -43 61 -43 17 0 39 -3 48 -6 14 -6 16 12 13 192
-2 110 1 234 5 277 l9 77 -39 0 c-21 0 -43 -4 -49 -8 -7 -5 -8 -62 -3 -182 8
-170 6 -210 -10 -210 -4 0 -75 90 -157 200 l-149 199 -58 1 -58 0 33 -41z"/>
<path d="M3645 3592 l0 -272 138 0 138 0 20 46 c12 25 19 47 17 49 -2 3 -26
-2 -53 -11 -28 -8 -77 -16 -110 -17 l-60 -2 -3 93 -3 94 48 -5 c26 -2 58 -8
70 -12 18 -6 25 -1 42 34 l21 40 -87 3 -88 3 -3 88 -3 87 46 0 c25 0 61 -7 80
-15 l35 -14 20 39 c11 22 20 42 20 45 0 3 -64 4 -142 3 l-143 -3 0 -273z"/>
<path d="M4025 3594 l0 -275 50 3 50 3 -5 50 c-8 88 -5 168 6 172 6 2 23 -15
38 -37 35 -53 61 -84 118 -143 l46 -48 94 5 93 5 3 28 c4 42 33 127 46 135 6
4 49 8 96 8 47 0 90 -4 96 -8 12 -8 54 -126 54 -153 0 -14 10 -17 60 -16 33 0
59 3 58 6 -2 3 -30 60 -62 126 -56 115 -136 282 -177 373 -11 23 -22 42 -24
42 -5 0 -23 -38 -102 -209 -91 -198 -142 -299 -153 -306 -15 -10 -56 33 -130
134 l-53 73 24 19 c13 10 27 19 31 19 15 0 48 81 48 117 0 47 -29 97 -69 117
-31 16 -139 35 -201 36 l-35 0 0 -276z m160 207 c82 -48 70 -176 -18 -199 -54
-15 -57 -10 -57 103 0 121 10 134 75 96z m516 -166 c15 -39 26 -71 24 -73 -5
-5 -127 -4 -132 1 -2 2 6 26 18 53 11 27 25 59 30 72 14 36 30 22 60 -53z"/>
<path d="M4995 3595 l0 -276 134 3 134 3 19 44 18 43 -22 -6 c-59 -15 -167
-29 -182 -23 -16 6 -17 25 -14 230 2 122 6 229 8 237 4 12 -6 16 -45 18 l-50
3 0 -276z"/>
<path d="M5365 3859 c-4 -5 -4 -21 -1 -35 9 -35 10 -421 1 -466 l-7 -38 140 0
c100 0 142 4 149 13 12 15 34 79 30 84 -2 2 -24 -4 -48 -12 -24 -9 -73 -17
-109 -18 l-65 -2 -3 93 -3 94 48 -5 c26 -3 59 -8 73 -12 25 -6 30 0 57 62 3 9
-19 13 -84 15 l-88 3 0 85 0 85 47 3 c29 2 59 -3 77 -13 l30 -15 20 39 c10 22
16 42 13 45 -10 11 -271 6 -277 -5z"/>
<path d="M6296 3862 c-3 -5 0 -40 5 -77 12 -72 7 -403 -6 -443 l-7 -23 138 3
139 3 19 38 c10 21 16 40 13 43 -3 3 -22 1 -43 -5 -22 -6 -66 -12 -99 -13
l-60 -3 0 243 0 242 -47 0 c-26 0 -49 -4 -52 -8z"/>
<path d="M6641 3843 c-6 -13 -11 -32 -11 -42 0 -18 3 -18 47 -5 25 8 62 14 81
14 l34 0 -4 -245 -3 -246 50 3 c38 2 50 7 49 19 -7 104 -14 434 -9 449 5 15
15 20 45 20 21 0 42 -4 45 -10 12 -20 52 -11 63 15 24 53 27 52 -182 52 -194
-1 -195 -1 -205 -24z"/>
<path d="M7086 3862 c-3 -5 0 -26 6 -48 7 -25 9 -121 6 -268 l-4 -228 100 4
c168 8 257 64 292 184 48 165 -62 331 -230 348 -31 3 -80 9 -110 12 -30 3 -57
1 -60 -4z m199 -76 c85 -40 125 -103 125 -196 0 -122 -85 -210 -202 -210 l-28
0 0 215 0 215 28 0 c15 0 50 -11 77 -24z"/>
<path d="M7760 3788 c-69 -151 -193 -404 -205 -418 -33 -42 -28 -50 35 -50 60
0 60 0 60 30 0 16 5 42 11 57 23 56 34 78 44 85 15 11 163 10 184 -2 16 -8 39
-67 55 -142 6 -26 10 -28 61 -28 30 0 55 3 55 6 0 3 -38 84 -85 179 -47 96
-85 176 -85 179 0 12 -84 176 -90 176 -3 0 -21 -33 -40 -72z m76 -145 c31 -76
30 -83 -8 -84 -18 0 -45 -2 -60 -4 -15 -2 -30 1 -34 6 -9 15 58 161 69 150 5
-5 20 -36 33 -68z"/>
<path d="M8142 3410 c-24 -23 -28 -47 -9 -71 21 -28 54 -32 76 -10 31 31 27
67 -9 86 -36 19 -32 19 -58 -5z"/>
</g>
</svg>
